# xmcd CD database file
#
# Track frame offsets:
#	150
#	16387
#	35912
#	49607
#	67337
#	81205
#	93547
#	105182
#	121865
#	134887
#	147662
#	169485
#
# Disc length: 2436 seconds
#
# Revision: 2
# Processed by: cddbd v1.5.1PL0 Copyright (c) Steve Scherf et al.
# Submitted via: CDex 1.51
#
DISCID=b509820c
DTITLE=Tanya Tucker - Nothing But The Best Volume Three
DYEAR=1993
DGENRE=Country
TTITLE0=Dancing The Night Away
TTITLE1=Love Me Like You Never Will Again
TTITLE2=Wait 'Til Daddy Finds Out
TTITLE3=Let's Keep It That Way
TTITLE4=Lizzie and The Rainman
TTITLE5=Ridin' Rainbows
TTITLE6=It's A Cowboy Lovin' Night
TTITLE7=It Was Always You
TTITLE8=Can I See You Tonight
TTITLE9=San Antonio Stroll
TTITLE10=Texas When I Die
TTITLE11=Dream Lover
EXTD=YEAR: 1993
EXTT0=
EXTT1=
EXTT2=
EXTT3=
EXTT4=
EXTT5=
EXTT6=
EXTT7=
EXTT8=
EXTT9=
EXTT10=
EXTT11=
PLAYORDER=
